<?xml version="1.0" encoding="UTF-8" standalone="no"?>
<!-- Created with Inkscape (http://www.inkscape.org/) -->

<svg
   xmlns:dc="http://purl.org/dc/elements/1.1/"
   xmlns:cc="http://creativecommons.org/ns#"
   xmlns:rdf="http://www.w3.org/1999/02/22-rdf-syntax-ns#"
   xmlns:svg="http://www.w3.org/2000/svg"
   xmlns="http://www.w3.org/2000/svg"
   xmlns:sodipodi="http://sodipodi.sourceforge.net/DTD/sodipodi-0.dtd"
   xmlns:inkscape="http://www.inkscape.org/namespaces/inkscape"
   id="svg3004"
   version="1.1"
   inkscape:version="0.48.2 r9819"
   width="501.75"
   height="139.46875"
   xml:space="preserve"
   sodipodi:docname="jayway_rgb.svg"><metadata
     id="metadata3010"><rdf:RDF><cc:Work
         rdf:about=""><dc:format>image/svg+xml</dc:format><dc:type
           rdf:resource="http://purl.org/dc/dcmitype/StillImage" /><dc:title></dc:title></cc:Work></rdf:RDF></metadata><defs
     id="defs3008"><clipPath
       clipPathUnits="userSpaceOnUse"
       id="clipPath3020"><path
         d="m 0,0 401.4,0 0,111.575 -401.4,0 L 0,0 z"
         id="path3022"
         inkscape:connector-curvature="0" /></clipPath><clipPath
       clipPathUnits="userSpaceOnUse"
       id="clipPath3030"><path
         d="M 0,0 402,0 402,112 0,112 0,0 z"
         id="path3032"
         inkscape:connector-curvature="0" /></clipPath><clipPath
       clipPathUnits="userSpaceOnUse"
       id="clipPath3060"><path
         d="m 0,0 401.4,0 0,111.575 -401.4,0 L 0,0 z"
         id="path3062"
         inkscape:connector-curvature="0" /></clipPath><clipPath
       clipPathUnits="userSpaceOnUse"
       id="clipPath3072"><path
         d="M 0,0 402,0 402,112 0,112 0,0 z"
         id="path3074"
         inkscape:connector-curvature="0" /></clipPath></defs><sodipodi:namedview
     pagecolor="#ffffff"
     bordercolor="#666666"
     borderopacity="1"
     objecttolerance="10"
     gridtolerance="10"
     guidetolerance="10"
     inkscape:pageopacity="0"
     inkscape:pageshadow="2"
     inkscape:window-width="1700"
     inkscape:window-height="989"
     id="namedview3006"
     showgrid="false"
     inkscape:zoom="2.6467662"
     inkscape:cx="251.25"
     inkscape:cy="70"
     inkscape:window-x="0"
     inkscape:window-y="0"
     inkscape:window-maximized="0"
     inkscape:current-layer="g3012"
     fit-margin-top="0"
     fit-margin-left="0"
     fit-margin-right="0"
     fit-margin-bottom="0" /><g
     id="g3012"
     inkscape:groupmode="layer"
     inkscape:label="jayway_rgb"
     transform="matrix(1.25,0,0,-1.25,0,139.46875)"><g
       id="g3014" /><g
       id="g3016"><g
         id="g3018"
         clip-path="url(#clipPath3020)"><path
           d="m 77.279,30.502 c 3.948,3.47 7.056,7.75 9.144,12.494 l 0.064,0.084 12.793,-3.401 -11.571,6.696 0.03,0.078 c 2.007,6.217 2.332,13.031 0.628,19.746 4.765,1.492 10.887,1.652 15.093,0.771 3.228,10.635 -3.074,19.735 -8.84,24.673 -1.558,-4.734 -5.457,-11.79 -10.411,-15.54 -1.901,3.118 -4.242,5.877 -6.913,8.222 l -0.157,0.137 c -0.512,3.219 -2.227,5.975 -4.632,7.858 l -0.056,0.044 5.098,12.521 -7.878,-10.892 -0.049,0.021 c -1.891,0.792 -4.007,1.129 -6.188,0.89 -1.997,-0.223 -3.831,-0.901 -5.409,-1.923 l -0.204,0.025 c -2.923,0.345 -5.916,0.332 -8.919,-0.073 l -0.049,-0.009 -5.994,18.651 1.458,-19.56 -0.086,-0.031 c -0.564,-0.154 -1.127,-0.323 -1.689,-0.507 -1.624,-0.53 -3.185,-1.166 -4.677,-1.893 -1.498,0.42 -3.278,0.556 -4.917,0.374 -2.283,-0.252 -4.354,-1.105 -6.073,-2.383 l -10.534,7.475 8.463,-9.415 c -2.15,-2.53 -3.294,-5.905 -2.9,-9.465 0.058,-0.524 0.148,-1.037 0.266,-1.537 -1.574,-2.903 -2.763,-6.152 -3.492,-9.393 l -0.306,0.153 C 12.243,68.238 6.262,75.198 3.992,77.498 1.808,73.504 -2.376,60.731 1.746,51.389 c 2.242,0.681 10.237,2.785 16.239,2.526 0.253,-2.532 0.781,-5.076 1.602,-7.595 1.908,-5.853 5.179,-10.879 9.346,-14.84 L 20.358,20.709 31.97,28.898 c 4.358,-3.304 9.436,-5.588 14.829,-6.64 L 43.29,9.086 l 7.286,12.64 c 3.218,-0.277 6.512,-0.121 9.799,0.512 l 2.945,-8.957 -0.47,9.527 c 0.632,0.168 1.261,0.354 1.889,0.559 3.53,1.15 6.76,2.799 9.639,4.84 L 86.487,17.355 77.279,30.502"
           style="fill:#51bbed;fill-opacity:1;fill-rule:nonzero;stroke:none"
           id="path3024"
           inkscape:connector-curvature="0" /></g></g><g
       id="g3026"><g
         id="g3028"
         clip-path="url(#clipPath3030)"><path
           d="m 71.324,82.026 c 1.489,-4.587 -1.1,-9.555 -5.801,-11.092 -4.703,-1.534 -9.727,0.951 -11.226,5.543 -1.498,4.592 1.1,9.562 5.799,11.093 4.703,1.53 9.727,-0.945 11.228,-5.544"
           style="fill:#ffffff;fill-opacity:1;fill-rule:nonzero;stroke:none"
           id="path3034"
           inkscape:connector-curvature="0" /><path
           d="m 67.135,80.082 c 0.557,-2.412 -0.932,-4.807 -3.335,-5.367 -2.399,-0.547 -4.802,0.932 -5.367,3.34 -0.556,2.405 0.941,4.805 3.333,5.359 2.413,0.565 4.81,-0.926 5.369,-3.332"
           style="fill:#272b2f;fill-opacity:1;fill-rule:nonzero;stroke:none"
           id="path3036"
           inkscape:connector-curvature="0" /><path
           d="m 45.982,77.741 c 1.503,-4.598 -1.097,-9.557 -5.798,-11.093 -4.701,-1.531 -9.723,0.945 -11.224,5.546 -1.494,4.588 1.103,9.553 5.803,11.093 4.701,1.535 9.725,-0.951 11.219,-5.546"
           style="fill:#ffffff;fill-opacity:1;fill-rule:nonzero;stroke:none"
           id="path3038"
           inkscape:connector-curvature="0" /><path
           d="m 41.803,75.792 c 0.561,-2.409 -0.941,-4.801 -3.344,-5.364 -2.393,-0.552 -4.8,0.93 -5.357,3.342 -0.558,2.409 0.932,4.807 3.327,5.362 2.416,0.565 4.81,-0.933 5.374,-3.34"
           style="fill:#272b2f;fill-opacity:1;fill-rule:nonzero;stroke:none"
           id="path3040"
           inkscape:connector-curvature="0" /><path
           d="m 94.804,82.308 -5.337,-6.481 6.731,4.895 c -0.082,0.788 -0.716,1.491 -1.394,1.586"
           style="fill:#ffffff;fill-opacity:1;fill-rule:nonzero;stroke:none"
           id="path3042"
           inkscape:connector-curvature="0" /><path
           d="m 98.515,74.279 -7.807,-2.591 7.94,0.531 c 0.452,0.632 0.326,1.428 -0.133,2.06"
           style="fill:#ffffff;fill-opacity:1;fill-rule:nonzero;stroke:none"
           id="path3044"
           inkscape:connector-curvature="0" /><path
           d="m 6.164,68.71 6.812,-4.903 -7.755,3.014 c -0.202,0.651 0.304,1.55 0.943,1.889"
           style="fill:#ffffff;fill-opacity:1;fill-rule:nonzero;stroke:none"
           id="path3046"
           inkscape:connector-curvature="0" /><path
           d="m 4.663,59.715 8.21,-0.512 -7.815,-1.512 C 4.406,58.31 4.32,59.011 4.663,59.715"
           style="fill:#ffffff;fill-opacity:1;fill-rule:nonzero;stroke:none"
           id="path3048"
           inkscape:connector-curvature="0" /><path
           d="m 118.015,11.625 c 6.124,0 8.303,2.594 8.303,7.783 l 0,71.379 c 0,1.868 0.726,2.698 2.491,2.698 l 9.029,0 c 1.869,0 2.491,-0.83 2.491,-2.698 l 0,-73.869 C 140.329,8.201 135.555,0 118.015,0 l -3.783,0 c -1.868,0 -2.595,0.728 -2.595,2.597 l 0,6.538 c 0,1.865 0.727,2.49 2.595,2.49 l 3.783,0"
           style="fill:#231f20;fill-opacity:1;fill-rule:nonzero;stroke:none"
           id="path3050"
           inkscape:connector-curvature="0" /><path
           d="m 175.791,60.832 c -1.352,4.254 -2.906,17.538 -3.012,18.888 -0.207,-1.35 -1.97,-14.425 -3.215,-18.785 l -3.531,-11.624 13.182,0 -3.424,11.521 z m 1.764,32.691 c 1.867,0 2.802,-0.831 3.32,-2.595 l 19.303,-65.381 c 0.519,-1.662 -0.104,-2.596 -1.867,-2.596 l -9.34,0 c -1.764,0 -2.491,0.934 -3.01,2.596 l -3.633,12.662 -19.303,0 -3.632,-12.662 c -0.518,-1.662 -1.245,-2.596 -3.114,-2.596 l -8.408,0 c -1.867,0 -2.49,0.934 -1.971,2.596 l 19.407,65.381 c 0.519,1.764 1.351,2.595 3.218,2.595 l 9.03,0"
           style="fill:#231f20;fill-opacity:1;fill-rule:nonzero;stroke:none"
           id="path3052"
           inkscape:connector-curvature="0" /><path
           d="m 288.702,55.643 c 0.83,-3.529 1.559,-9.342 1.662,-10.276 0.104,0.728 0.727,5.604 1.867,10.173 l 8.926,35.388 c 0.414,1.662 1.244,2.595 3.01,2.595 l 7.887,0 c 1.867,0 2.386,-0.933 1.97,-2.595 l -16.5,-65.381 c -0.416,-1.764 -1.453,-2.596 -3.216,-2.596 l -8.823,0 c -1.556,0 -2.49,0.934 -2.904,2.596 l -9.133,36.115 c -0.623,2.283 -1.349,8.303 -1.453,9.444 -0.103,-1.038 -0.935,-7.37 -1.455,-9.444 l -9.131,-36.115 c -0.414,-1.764 -1.349,-2.596 -3.217,-2.596 l -8.82,0 c -1.557,0 -2.49,0.934 -2.906,2.596 L 235.548,68.85 c -0.117,0.547 -0.139,0.809 0.117,1.336 0,0 8.359,17.199 8.527,17.53 0.168,0.33 0.741,0.318 0.846,-0.122 0.108,-0.435 7.861,-32.054 7.861,-32.054 0.936,-3.841 1.663,-8.719 1.663,-8.719 0,0 0.517,3.425 1.867,8.719 l 8.925,35.388 c 0.415,1.662 1.245,2.595 3.112,2.595 l 8.406,0 c 1.867,0 2.697,-0.933 3.111,-2.595 l 8.719,-35.285"
           style="fill:#231f20;fill-opacity:1;fill-rule:nonzero;stroke:none"
           id="path3054"
           inkscape:connector-curvature="0" /></g></g><g
       id="g3056"><g
         id="g3058"
         clip-path="url(#clipPath3060)"><path
           d="m 334.476,60.832 c -1.352,4.254 -2.907,17.538 -3.012,18.888 -0.207,-1.35 -1.971,-14.425 -3.215,-18.785 l -3.531,-11.624 13.181,0 -3.423,11.521 z m 1.763,32.691 c 1.867,0 2.803,-0.831 3.321,-2.595 l 19.302,-65.381 c 0.52,-1.662 -0.103,-2.596 -1.867,-2.596 l -9.34,0 c -1.763,0 -2.49,0.934 -3.009,2.596 l -3.633,12.662 -19.303,0 -3.633,-12.662 c -0.517,-1.662 -1.244,-2.596 -3.113,-2.596 l -8.408,0 c -1.868,0 -2.491,0.934 -1.971,2.596 l 19.406,65.381 c 0.52,1.764 1.352,2.595 3.219,2.595 l 9.029,0"
           style="fill:#231f20;fill-opacity:1;fill-rule:nonzero;stroke:none"
           id="path3064"
           inkscape:connector-curvature="0" /><path
           d="m 372.658,67.266 c 0.623,-1.66 1.66,-5.085 1.764,-5.501 0.103,0.416 1.037,3.841 1.867,5.501 l 11,23.662 c 0.625,1.453 1.248,2.595 3.012,2.595 l 8.926,0 c 1.763,0 2.697,-0.933 1.867,-2.595 l -19.615,-40.995 0,-24.386 c 0,-1.764 -0.622,-2.596 -2.491,-2.596 l -9.027,0 c -1.869,0 -2.596,0.832 -2.596,2.596 l 0,22.727 -19.719,42.654 c -0.726,1.556 0,2.595 1.764,2.595 l 10.278,0 c 1.763,0 2.49,-1.039 3.111,-2.595 l 9.859,-23.662"
           style="fill:#231f20;fill-opacity:1;fill-rule:nonzero;stroke:none"
           id="path3066"
           inkscape:connector-curvature="0" /></g></g><g
       id="g3068"><g
         id="g3070"
         clip-path="url(#clipPath3072)"><path
           d="m 213.974,67.266 c 0.623,-1.66 1.66,-5.085 1.763,-5.501 0.104,0.416 1.037,3.841 1.867,5.501 l 11,23.662 c 0.625,1.453 1.249,2.595 3.012,2.595 l 8.926,0 c 1.764,0 2.697,-0.933 1.867,-2.595 l -19.615,-40.995 0,-24.386 c 0,-1.764 -0.621,-2.596 -2.49,-2.596 l -9.028,0 c -1.869,0 -2.595,0.832 -2.595,2.596 l 0,22.727 -19.719,42.654 c -0.727,1.556 0,2.595 1.764,2.595 l 10.277,0 c 1.764,0 2.49,-1.039 3.111,-2.595 l 9.86,-23.662"
           style="fill:#231f20;fill-opacity:1;fill-rule:nonzero;stroke:none"
           id="path3076"
           inkscape:connector-curvature="0" /></g></g></g></svg>